<?xml version="1.0" encoding="UTF-8"?>
<svg width="700pt" height="700pt" version="1.1" viewBox="0 0 700 700" xmlns="http://www.w3.org/2000/svg" xmlns:xlink="http://www.w3.org/1999/xlink">
 <defs>
  <symbol id="v" overflow="visible">
   <path d="m3.6562-0.21875c-0.1875 0.09375-0.38672 0.16797-0.59375 0.21875-0.19922 0.050781-0.40625 0.078125-0.625 0.078125-0.66797 0-1.1992-0.17969-1.5938-0.54688-0.38672-0.375-0.57812-0.87891-0.57812-1.5156 0-0.64453 0.19141-1.1484 0.57812-1.5156 0.39453-0.375 0.92578-0.5625 1.5938-0.5625 0.21875 0 0.42578 0.027344 0.625 0.078125 0.20703 0.054687 0.40625 0.125 0.59375 0.21875v0.82812c-0.1875-0.125-0.375-0.21875-0.5625-0.28125-0.17969-0.0625-0.37109-0.09375-0.57812-0.09375-0.36719 0-0.65625 0.12109-0.875 0.35938-0.21094 0.23047-0.3125 0.55469-0.3125 0.96875 0 0.40625 0.10156 0.73047 0.3125 0.96875 0.21875 0.23047 0.50781 0.34375 0.875 0.34375 0.20703 0 0.39844-0.023437 0.57812-0.078125 0.1875-0.0625 0.375-0.16016 0.5625-0.29688z"/>
  </symbol>
  <symbol id="c" overflow="visible">
   <path d="m2.6875-2.1719c-0.085938-0.039063-0.16797-0.070313-0.25-0.09375-0.085938-0.019531-0.16797-0.03125-0.25-0.03125-0.25 0-0.44531 0.085937-0.57812 0.25-0.125 0.15625-0.1875 0.38281-0.1875 0.67188v1.375h-0.96875v-2.9844h0.96875v0.48438c0.11328-0.19531 0.25-0.33594 0.40625-0.42188 0.16406-0.09375 0.35938-0.14062 0.57812-0.14062h0.10938c0.039063 0 0.09375 0.007812 0.15625 0.015625z"/>
  </symbol>
  <symbol id="b" overflow="visible">
   <path d="m3.4375-1.5v0.26562h-2.2344c0.03125 0.23047 0.11328 0.40234 0.25 0.51562 0.13281 0.10547 0.32812 0.15625 0.57812 0.15625 0.20703 0 0.41406-0.023438 0.625-0.078125 0.20703-0.0625 0.42188-0.15625 0.64062-0.28125v0.73438c-0.21875 0.09375-0.44531 0.16406-0.67188 0.20312-0.23047 0.039062-0.45312 0.0625-0.67188 0.0625-0.54297 0-0.96484-0.13281-1.2656-0.40625-0.30469-0.28125-0.45312-0.67188-0.45312-1.1719 0-0.47656 0.14453-0.85938 0.4375-1.1406 0.30078-0.28125 0.70703-0.42188 1.2188-0.42188 0.46875 0 0.84375 0.14062 1.125 0.42188s0.42188 0.66406 0.42188 1.1406zm-0.96875-0.32812c0-0.17578-0.058594-0.31641-0.17188-0.42188-0.10547-0.11328-0.24219-0.17188-0.40625-0.17188-0.1875 0-0.33984 0.054687-0.45312 0.15625-0.11719 0.10547-0.1875 0.25-0.21875 0.4375z"/>
  </symbol>
  <symbol id="d" overflow="visible">
   <path d="m1.7969-1.3438c-0.19922 0-0.35156 0.039062-0.45312 0.10938-0.09375 0.0625-0.14062 0.16406-0.14062 0.29688 0 0.11719 0.035156 0.21094 0.10938 0.28125 0.082031 0.0625 0.19531 0.09375 0.34375 0.09375 0.17578 0 0.32812-0.0625 0.45312-0.1875s0.1875-0.28516 0.1875-0.48438v-0.10938zm1.4688-0.35938v1.7031h-0.96875v-0.4375c-0.125 0.17969-0.27344 0.30859-0.4375 0.39062-0.15625 0.082031-0.35156 0.125-0.57812 0.125-0.3125 0-0.57031-0.085938-0.76562-0.26562-0.1875-0.1875-0.28125-0.42188-0.28125-0.70312 0-0.35156 0.11719-0.61328 0.35938-0.78125 0.23828-0.16406 0.61719-0.25 1.1406-0.25h0.5625v-0.0625c0-0.15625-0.0625-0.26562-0.1875-0.32812-0.11719-0.070312-0.29688-0.10938-0.54688-0.10938-0.21094 0-0.40234 0.023437-0.57812 0.0625-0.17969 0.042969-0.33984 0.10156-0.48438 0.17188v-0.71875c0.19531-0.050781 0.39844-0.085938 0.60938-0.10938 0.20703-0.03125 0.41406-0.046875 0.625-0.046875 0.53906 0 0.92969 0.10938 1.1719 0.32812 0.23828 0.21094 0.35938 0.55469 0.35938 1.0312z"/>
  </symbol>
  <symbol id="a" overflow="visible">
   <path d="m1.5-3.8438v0.85938h0.98438v0.67188h-0.98438v1.2812c0 0.13672 0.023438 0.23047 0.078125 0.28125 0.0625 0.042969 0.17578 0.0625 0.34375 0.0625h0.48438v0.6875h-0.8125c-0.38672 0-0.65625-0.078125-0.8125-0.23438s-0.23438-0.42188-0.23438-0.79688v-1.2812h-0.46875v-0.67188h0.46875v-0.85938z"/>
  </symbol>
  <symbol id="j" overflow="visible">
   <path d="m2.5-2.5469v-1.6094h0.95312v4.1562h-0.95312v-0.4375c-0.13672 0.17969-0.28125 0.30859-0.4375 0.39062-0.15625 0.082031-0.33984 0.125-0.54688 0.125-0.375 0-0.68359-0.14453-0.92188-0.4375-0.23047-0.28906-0.34375-0.67188-0.34375-1.1406 0-0.45703 0.11328-0.83203 0.34375-1.125 0.23828-0.28906 0.54688-0.4375 0.92188-0.4375 0.19531 0 0.375 0.042969 0.53125 0.125 0.16406 0.085938 0.31641 0.21484 0.45312 0.39062zm-0.64062 1.9375c0.20703 0 0.36328-0.070313 0.46875-0.21875 0.11328-0.15625 0.17188-0.37891 0.17188-0.67188 0-0.28125-0.058594-0.49219-0.17188-0.64062-0.10547-0.15625-0.26172-0.23438-0.46875-0.23438-0.19922 0-0.35547 0.078125-0.46875 0.23438-0.10547 0.14844-0.15625 0.35938-0.15625 0.64062 0 0.29297 0.050781 0.51562 0.15625 0.67188 0.11328 0.14844 0.26953 0.21875 0.46875 0.21875z"/>
  </symbol>
  <symbol id="i" overflow="visible">
   <path d="m2.0469-0.60938c0.20703 0 0.36328-0.070313 0.46875-0.21875 0.11328-0.15625 0.17188-0.37891 0.17188-0.67188 0-0.28125-0.058594-0.49219-0.17188-0.64062-0.10547-0.15625-0.26172-0.23438-0.46875-0.23438-0.19922 0-0.35547 0.078125-0.46875 0.23438-0.10547 0.14844-0.15625 0.35938-0.15625 0.64062 0 0.29297 0.050781 0.51562 0.15625 0.67188 0.11328 0.14844 0.26953 0.21875 0.46875 0.21875zm-0.625-1.9375c0.125-0.17578 0.26562-0.30469 0.42188-0.39062 0.16406-0.082031 0.35156-0.125 0.5625-0.125 0.36328 0 0.66406 0.14844 0.90625 0.4375 0.23828 0.29297 0.35938 0.66797 0.35938 1.125 0 0.46875-0.12109 0.85156-0.35938 1.1406-0.24219 0.29297-0.54297 0.4375-0.90625 0.4375-0.21094 0-0.39844-0.042969-0.5625-0.125-0.15625-0.082031-0.29688-0.21094-0.42188-0.39062v0.4375h-0.96875v-4.1562h0.96875z"/>
  </symbol>
  <symbol id="h" overflow="visible">
   <path d="m0.0625-2.9844h0.95312l0.8125 2.0156 0.6875-2.0156h0.95312l-1.2656 3.2656c-0.125 0.33203-0.27344 0.56641-0.4375 0.70312-0.16797 0.13281-0.39062 0.20312-0.67188 0.20312h-0.54688v-0.64062h0.29688c0.16406 0 0.28516-0.027344 0.35938-0.078125 0.070313-0.054688 0.12891-0.14062 0.17188-0.26562l0.03125-0.09375z"/>
  </symbol>
  <symbol id="g" overflow="visible">
   <path d="m0.45312-4.1562h0.96875v4.1562h-0.96875z"/>
  </symbol>
  <symbol id="f" overflow="visible">
   <path d="m2.7969-2.8906v0.71875c-0.21094-0.082031-0.40625-0.14453-0.59375-0.1875-0.1875-0.039063-0.37109-0.0625-0.54688-0.0625-0.17969 0-0.3125 0.023437-0.40625 0.0625-0.085938 0.042969-0.125 0.10938-0.125 0.20312 0 0.085938 0.03125 0.14844 0.09375 0.1875 0.070312 0.042969 0.19531 0.074219 0.375 0.09375l0.15625 0.015625c0.48828 0.0625 0.81641 0.16797 0.98438 0.3125 0.17578 0.13672 0.26562 0.35938 0.26562 0.67188s-0.12109 0.55469-0.35938 0.71875c-0.23047 0.15625-0.57812 0.23438-1.0469 0.23438-0.19922 0-0.40625-0.015625-0.625-0.046875-0.21094-0.03125-0.42188-0.078125-0.64062-0.14062v-0.71875c0.1875 0.085937 0.37891 0.15234 0.57812 0.20312 0.20703 0.042969 0.41406 0.0625 0.625 0.0625 0.1875 0 0.32812-0.023438 0.42188-0.078125 0.09375-0.050781 0.14062-0.125 0.14062-0.21875s-0.039062-0.16016-0.10938-0.20312c-0.0625-0.039062-0.1875-0.070312-0.375-0.09375l-0.17188-0.015625c-0.42969-0.050781-0.73047-0.14844-0.90625-0.29688-0.16797-0.14453-0.25-0.36328-0.25-0.65625 0-0.32031 0.10938-0.55469 0.32812-0.70312 0.21875-0.15625 0.55078-0.23438 1-0.23438 0.17578 0 0.35938 0.015625 0.54688 0.046875 0.19531 0.023437 0.41016 0.0625 0.64062 0.125z"/>
  </symbol>
  <symbol id="u" overflow="visible">
   <path d="m1.4219-0.4375v1.5781h-0.96875v-4.125h0.96875v0.4375c0.125-0.17578 0.26562-0.30469 0.42188-0.39062 0.16406-0.082031 0.35156-0.125 0.5625-0.125 0.36328 0 0.66406 0.14844 0.90625 0.4375 0.23828 0.29297 0.35938 0.66797 0.35938 1.125 0 0.46875-0.12109 0.85156-0.35938 1.1406-0.24219 0.29297-0.54297 0.4375-0.90625 0.4375-0.21094 0-0.39844-0.042969-0.5625-0.125-0.15625-0.082031-0.29688-0.21094-0.42188-0.39062zm0.625-1.9375c-0.19922 0-0.35547 0.078125-0.46875 0.23438-0.10547 0.14844-0.15625 0.35938-0.15625 0.64062 0 0.29297 0.050781 0.51562 0.15625 0.67188 0.11328 0.14844 0.26953 0.21875 0.46875 0.21875 0.20703 0 0.36328-0.070313 0.46875-0.21875 0.11328-0.15625 0.17188-0.37891 0.17188-0.67188 0-0.28125-0.058594-0.49219-0.17188-0.64062-0.10547-0.15625-0.26172-0.23438-0.46875-0.23438z"/>
  </symbol>
  <symbol id="t" overflow="visible">
   <path d="m0.45312-4.1562h0.96875v2.2656l1.0938-1.0938h1.1094l-1.4531 1.3594 1.5625 1.625h-1.1562l-1.1562-1.25v1.25h-0.96875z"/>
  </symbol>
  <symbol id="s" overflow="visible">
   <path d="m2.4219-4.1562v0.625h-0.51562c-0.13672 0-0.23438 0.027344-0.29688 0.078125-0.054687 0.054687-0.078125 0.13672-0.078125 0.25v0.21875h0.82812v0.67188h-0.82812v2.3125h-0.95312v-2.3125h-0.46875v-0.67188h0.46875v-0.21875c0-0.32031 0.085937-0.5625 0.26562-0.71875 0.1875-0.15625 0.47266-0.23438 0.85938-0.23438z"/>
  </symbol>
  <symbol id="e" overflow="visible">
   <path d="m1.875-2.375c-0.21094 0-0.37109 0.078125-0.48438 0.23438-0.10547 0.14844-0.15625 0.35938-0.15625 0.64062 0 0.29297 0.050781 0.51562 0.15625 0.67188 0.11328 0.14844 0.27344 0.21875 0.48438 0.21875 0.20703 0 0.36719-0.070313 0.48438-0.21875 0.11328-0.15625 0.17188-0.37891 0.17188-0.67188 0-0.28125-0.058594-0.49219-0.17188-0.64062-0.11719-0.15625-0.27734-0.23438-0.48438-0.23438zm0-0.6875c0.51953 0 0.92188 0.14062 1.2031 0.42188 0.28906 0.27344 0.4375 0.65234 0.4375 1.1406 0 0.5-0.14844 0.89062-0.4375 1.1719-0.28125 0.27344-0.68359 0.40625-1.2031 0.40625-0.51172 0-0.91406-0.13281-1.2031-0.40625-0.29297-0.28125-0.4375-0.67188-0.4375-1.1719 0-0.48828 0.14453-0.86719 0.4375-1.1406 0.28906-0.28125 0.69141-0.42188 1.2031-0.42188z"/>
  </symbol>
  <symbol id="r" overflow="visible">
   <path d="m3.2344-2.5c0.11328-0.17578 0.25391-0.3125 0.42188-0.40625 0.16406-0.10156 0.35156-0.15625 0.5625-0.15625 0.33203 0 0.58594 0.10938 0.76562 0.32812 0.1875 0.21094 0.28125 0.51172 0.28125 0.90625v1.8281h-0.96875v-1.5625c0.007813-0.019531 0.015625-0.039062 0.015625-0.0625v-0.10938c0-0.21875-0.03125-0.375-0.09375-0.46875s-0.16406-0.14062-0.29688-0.14062c-0.1875 0-0.33594 0.078125-0.4375 0.23438-0.09375 0.14844-0.14062 0.35938-0.14062 0.64062v1.4688h-0.96875v-1.5625c0-0.33203-0.03125-0.54688-0.09375-0.64062-0.054688-0.09375-0.15234-0.14062-0.29688-0.14062-0.17969 0-0.32031 0.078125-0.42188 0.23438-0.09375 0.14844-0.14062 0.35938-0.14062 0.64062v1.4688h-0.96875v-2.9844h0.96875v0.4375c0.11328-0.17578 0.24219-0.30469 0.39062-0.39062 0.15625-0.082031 0.32812-0.125 0.51562-0.125 0.20703 0 0.39062 0.054688 0.54688 0.15625 0.15625 0.09375 0.27344 0.23047 0.35938 0.40625z"/>
  </symbol>
  <symbol id="q" overflow="visible">
   <path d="m3.4688-1.8281v1.8281h-0.96875v-1.3906c0-0.25781-0.007812-0.4375-0.015625-0.53125-0.011719-0.10156-0.03125-0.17578-0.0625-0.21875-0.03125-0.0625-0.085937-0.10938-0.15625-0.14062-0.0625-0.039062-0.13281-0.0625-0.20312-0.0625-0.21094 0-0.37109 0.078125-0.48438 0.23438-0.10547 0.15625-0.15625 0.37109-0.15625 0.64062v1.4688h-0.96875v-4.1562h0.96875v1.6094c0.13281-0.17578 0.28516-0.30469 0.45312-0.39062 0.16406-0.082031 0.34375-0.125 0.53125-0.125 0.34375 0 0.60156 0.10938 0.78125 0.32812 0.1875 0.21094 0.28125 0.51172 0.28125 0.90625z"/>
  </symbol>
  <symbol id="p" overflow="visible">
   <path d="m0.5-3.9844h1.1562l1.4375 2.7344v-2.7344h0.98438v3.9844h-1.1562l-1.4375-2.7344v2.7344h-0.98438z"/>
  </symbol>
  <symbol id="o" overflow="visible">
   <path d="m0.42188-1.1719v-1.8125h0.96875v0.29688 0.60938 0.48438c0 0.24219 0.003906 0.41797 0.015625 0.53125 0.007812 0.10547 0.03125 0.17969 0.0625 0.21875 0.039062 0.0625 0.09375 0.11719 0.15625 0.15625 0.0625 0.03125 0.13281 0.046875 0.21875 0.046875 0.19531 0 0.35156-0.078125 0.46875-0.23438 0.11328-0.15625 0.17188-0.36719 0.17188-0.64062v-1.4688h0.95312v2.9844h-0.95312v-0.4375c-0.14844 0.17969-0.30469 0.30859-0.46875 0.39062-0.15625 0.082031-0.33594 0.125-0.53125 0.125-0.34375 0-0.60938-0.10156-0.79688-0.3125-0.17969-0.21875-0.26562-0.53125-0.26562-0.9375z"/>
  </symbol>
  <symbol id="n" overflow="visible">
   <path d="m3.4688-1.8281v1.8281h-0.96875v-1.3906c0-0.25781-0.007812-0.4375-0.015625-0.53125-0.011719-0.10156-0.03125-0.17578-0.0625-0.21875-0.03125-0.0625-0.085937-0.10938-0.15625-0.14062-0.0625-0.039062-0.13281-0.0625-0.20312-0.0625-0.21094 0-0.37109 0.078125-0.48438 0.23438-0.10547 0.15625-0.15625 0.37109-0.15625 0.64062v1.4688h-0.96875v-2.9844h0.96875v0.4375c0.13281-0.17578 0.28516-0.30469 0.45312-0.39062 0.16406-0.082031 0.34375-0.125 0.53125-0.125 0.34375 0 0.60156 0.10938 0.78125 0.32812 0.1875 0.21094 0.28125 0.51172 0.28125 0.90625z"/>
  </symbol>
  <symbol id="m" overflow="visible">
   <path d="m0.5-3.9844h1.7031c0.50781 0 0.89844 0.11719 1.1719 0.34375 0.26953 0.21875 0.40625 0.53906 0.40625 0.95312 0 0.41797-0.13672 0.74219-0.40625 0.96875-0.27344 0.21875-0.66406 0.32812-1.1719 0.32812h-0.67188v1.3906h-1.0312zm1.0312 0.75v1.1094h0.5625c0.19531 0 0.34766-0.046875 0.45312-0.14062 0.11328-0.10156 0.17188-0.24219 0.17188-0.42188 0-0.17578-0.058594-0.3125-0.17188-0.40625-0.10547-0.09375-0.25781-0.14062-0.45312-0.14062z"/>
  </symbol>
  <symbol id="l" overflow="visible">
   <path d="m0.45312-2.9844h0.96875v2.9375c0 0.39453-0.10156 0.69531-0.29688 0.90625-0.1875 0.21875-0.46484 0.32812-0.82812 0.32812h-0.48438v-0.64062h0.17188c0.17578 0 0.29688-0.042969 0.35938-0.125 0.070312-0.074219 0.10938-0.23047 0.10938-0.46875zm0-1.1719h0.96875v0.78125h-0.96875z"/>
  </symbol>
  <symbol id="k" overflow="visible">
   <path d="m2.875-2.8906v0.76562c-0.125-0.082031-0.25781-0.14453-0.39062-0.1875-0.13672-0.039062-0.27344-0.0625-0.40625-0.0625-0.27344 0-0.48047 0.078125-0.625 0.23438-0.14844 0.15625-0.21875 0.37109-0.21875 0.64062 0 0.28125 0.070313 0.5 0.21875 0.65625 0.14453 0.15625 0.35156 0.23438 0.625 0.23438 0.14453 0 0.28516-0.019531 0.42188-0.0625 0.13281-0.039063 0.25781-0.10938 0.375-0.20312v0.78125c-0.14844 0.0625-0.29688 0.10156-0.45312 0.125-0.15625 0.03125-0.3125 0.046875-0.46875 0.046875-0.54297 0-0.96484-0.13281-1.2656-0.40625-0.30469-0.28125-0.45312-0.67188-0.45312-1.1719 0-0.48828 0.14844-0.86719 0.45312-1.1406 0.30078-0.28125 0.72266-0.42188 1.2656-0.42188 0.15625 0 0.3125 0.015625 0.46875 0.046875 0.15625 0.023437 0.30469 0.0625 0.45312 0.125z"/>
  </symbol>
 </defs>
 <g>
  <path d="m350.25 441.86c-2.4141 0-4.418-1.957-4.418-4.375s1.9141-4.3711 4.332-4.3711h0.085938c2.418 0 4.375 1.957 4.375 4.3711-0.003906 2.418-1.9609 4.375-4.375 4.375z"/>
  <path d="m349.99 454.98c-9.6484 0-17.496-7.8516-17.496-17.496s7.8477-17.496 17.496-17.496c9.6484 0 17.5 7.8516 17.5 17.496s-7.8516 17.496-17.5 17.496zm0-26.242c-4.8242 0-8.7461 3.9219-8.7461 8.7461 0 4.8281 3.9258 8.7461 8.7461 8.7461 4.8242 0 8.7461-3.9219 8.7461-8.7461s-3.9258-8.7461-8.7461-8.7461z"/>
  <path d="m349.99 428.74c-2.418 0-4.375-1.957-4.375-4.3711v-17.684c0-2.418 1.957-4.375 4.375-4.375s4.375 1.957 4.375 4.375v17.684c-0.003906 2.4141-1.9609 4.3711-4.375 4.3711z"/>
  <path d="m323.31 457.27c-1.5117 0-2.9805-0.77734-3.793-2.1875-1.207-2.0938-0.49219-4.7656 1.6016-5.9727l15.309-8.8516c2.082-1.207 4.7578-0.49609 5.9766 1.6055 1.207 2.0938 0.49219 4.7656-1.6016 5.9805l-15.309 8.832c-0.6875 0.40625-1.4414 0.59375-2.1836 0.59375z"/>
  <path d="m349.98 481.23c-7.6406 0-15.199-2.0352-21.852-5.875-10.117-5.8359-17.355-15.266-20.383-26.551-3.0273-11.285-1.4805-23.066 4.3594-33.188 7.7891-13.488 22.316-21.879 37.918-21.879 7.6367 0 15.191 2.0312 21.848 5.8789 10.113 5.8438 17.352 15.273 20.375 26.559 3.0234 11.285 1.4688 23.074-4.3828 33.199-7.7695 13.48-22.285 21.855-37.883 21.855zm0.046876-78.75c-12.484 0-24.105 6.707-30.34 17.504-4.6719 8.0898-5.9102 17.523-3.4883 26.551 2.4219 9.0312 8.2109 16.566 16.305 21.246 5.3281 3.0742 11.371 4.6992 17.477 4.6992 12.477 0 24.086-6.6953 30.305-17.488 4.6797-8.0977 5.9297-17.531 3.5117-26.559s-8.2109-16.574-16.301-21.254c-5.3203-3.0742-11.367-4.6992-17.469-4.6992z"/>
  <path d="m376.67 457.26c-0.73438 0-1.4883-0.1875-2.1797-0.58203l-15.316-8.832c-2.0938-1.1953-2.8125-3.8789-1.6055-5.9609 1.207-2.0938 3.8789-2.8203 5.9727-1.6055l15.316 8.8164c2.0938 1.2148 2.8203 3.8789 1.6055 5.9805-0.80469 1.3984-2.2812 2.1836-3.793 2.1836z"/>
  <path d="m547.18 472.29h-157.83c-2.418 0-4.375-1.957-4.375-4.375 0-2.418 1.957-4.375 4.375-4.375h157.83c2.418 0 4.375 1.957 4.375 4.375 0 2.418-1.957 4.375-4.375 4.375z"/>
  <path d="m336.86 253.59h-104.97c-2.418 0-4.375-1.957-4.375-4.375s1.957-4.375 4.375-4.375h104.97c2.418 0 4.375 1.957 4.375 4.375s-1.9531 4.375-4.375 4.375z"/>
  <path d="m520.57 428.55c-1.5625 0-3.0742-0.83594-3.8594-2.3125-0.59766-1.1172-61.234-112.83-155.09-146.84-2.2617-0.82422-3.4414-3.332-2.6211-5.6055 0.82812-2.2656 3.3477-3.4609 5.6055-2.6211 97.055 35.16 157.31 146.23 159.83 150.95 1.1445 2.1289 0.33203 4.7734-1.793 5.9102-0.66797 0.35938-1.3672 0.51953-2.0664 0.51953z"/>
  <path d="m497.43 440.92c-1.5547 0-3.0586-0.82812-3.8438-2.2891-0.45313-0.82812-45.824-83.504-115.09-122.6-2.1016-1.1875-2.8438-3.8594-1.6562-5.9648 1.1797-2.1016 3.8516-2.8438 5.9531-1.6562 71.441 40.32 116.59 122.57 118.48 126.05 1.1523 2.1289 0.35937 4.7734-1.7578 5.9297-0.66797 0.35938-1.375 0.53125-2.0859 0.53125z"/>
  <path d="m301.88 437.3h-87.477c-2.418 0-4.375-1.957-4.375-4.3711 0-2.418 1.957-4.375 4.375-4.375h87.477c2.418 0 4.375 1.957 4.375 4.375-0.003906 2.4141-1.957 4.3711-4.375 4.3711z"/>
  <path d="m538.07 402.3c-2.418 0-4.3711-1.957-4.3711-4.375v-17.496c0-2.418 1.957-4.375 4.3711-4.375 2.418 0 4.375 1.957 4.375 4.375v17.496c0 2.4219-1.9531 4.375-4.375 4.375z"/>
  <path d="m555.56 402.3h-17.496c-2.418 0-4.3711-1.957-4.3711-4.375 0-2.418 1.957-4.375 4.3711-4.375h17.496c2.418 0 4.375 1.957 4.375 4.375 0 2.4219-1.957 4.375-4.375 4.375z"/>
  <path d="m586.44 441.86c-2.4102 0-4.418-1.957-4.418-4.375s1.9141-4.3711 4.332-4.3711h0.085938c2.418 0 4.375 1.957 4.375 4.3711 0 2.418-1.957 4.375-4.375 4.375z"/>
  <path d="m586.18 454.98c-9.6523 0-17.496-7.8516-17.496-17.496s7.8438-17.496 17.496-17.496c9.6445 0 17.496 7.8516 17.496 17.496s-7.8516 17.496-17.496 17.496zm0-26.242c-4.8281 0-8.7461 3.9219-8.7461 8.7461 0 4.8281 3.9219 8.7461 8.7461 8.7461 4.8164 0 8.7461-3.9219 8.7461-8.7461s-3.9297-8.7461-8.7461-8.7461z"/>
  <path d="m586.18 428.74c-2.418 0-4.375-1.957-4.375-4.3711v-17.684c0-2.418 1.957-4.375 4.375-4.375 2.418 0 4.375 1.957 4.375 4.375v17.684c-0.003906 2.4141-1.9609 4.3711-4.375 4.3711z"/>
  <path d="m559.5 457.27c-1.5117 0-2.9844-0.77734-3.793-2.1875-1.207-2.0938-0.48828-4.7656 1.6055-5.9727l15.309-8.8516c2.0859-1.207 4.7578-0.49609 5.9727 1.6055 1.2109 2.0938 0.49609 4.7656-1.5977 5.9805l-15.309 8.832c-0.69531 0.40625-1.4453 0.59375-2.1875 0.59375z"/>
  <path d="m586.17 481.23c-7.6445 0-15.199-2.0352-21.852-5.875-10.121-5.8359-17.359-15.266-20.383-26.551-3.0312-11.285-1.4766-23.066 4.3555-33.188 7.7891-13.488 22.324-21.879 37.922-21.879 7.6367 0 15.191 2.0312 21.844 5.8789 10.113 5.8438 17.352 15.273 20.375 26.559 3.0234 11.285 1.4688 23.074-4.3828 33.199-7.7734 13.48-22.285 21.855-37.879 21.855zm0.042969-78.75c-12.488 0-24.105 6.707-30.344 17.504-4.6719 8.0898-5.9102 17.523-3.4844 26.551 2.418 9.0312 8.2109 16.566 16.309 21.246 5.3203 3.0742 11.371 4.6992 17.477 4.6992 12.473 0 24.082-6.6953 30.301-17.488 4.6797-8.0977 5.9297-17.531 3.5117-26.559s-8.2109-16.574-16.301-21.254c-5.3203-3.0742-11.367-4.6992-17.469-4.6992z"/>
  <path d="m612.86 457.26c-0.73438 0-1.4883-0.1875-2.1797-0.58203l-15.316-8.832c-2.0938-1.1953-2.8086-3.8789-1.6055-5.9609 1.207-2.0938 3.8789-2.8203 5.9727-1.6055l15.316 8.8164c2.0938 1.2148 2.8203 3.8789 1.6055 5.9805-0.80078 1.3984-2.2812 2.1836-3.793 2.1836z"/>
  <path d="m301.88 481.04c-2.418 0-4.375-1.957-4.375-4.375v-8.7461c0-2.418 1.957-4.375 4.375-4.375s4.375 1.957 4.375 4.375v8.7461c-0.003906 2.4219-1.957 4.375-4.375 4.375z"/>
  <path d="m284.38 481.04c-2.418 0-4.375-1.957-4.375-4.375v-8.7461c0-2.418 1.957-4.375 4.375-4.375 2.418 0 4.375 1.957 4.375 4.375v8.7461c0 2.4219-1.957 4.375-4.375 4.375z"/>
  <path d="m266.88 481.04c-2.418 0-4.375-1.957-4.375-4.375v-8.7461c0-2.418 1.957-4.375 4.375-4.375 2.418 0 4.375 1.957 4.375 4.375v8.7461c0 2.4219-1.957 4.375-4.375 4.375z"/>
  <path d="m249.39 481.04c-2.418 0-4.375-1.957-4.375-4.375v-8.7461c0-2.418 1.957-4.375 4.375-4.375s4.375 1.957 4.375 4.375v8.7461c0 2.4219-1.957 4.375-4.375 4.375z"/>
  <path d="m231.89 481.04c-2.418 0-4.375-1.957-4.375-4.375v-8.7461c0-2.418 1.957-4.375 4.375-4.375s4.375 1.957 4.375 4.375v8.7461c0 2.4219-1.957 4.375-4.375 4.375z"/>
  <path d="m214.4 481.04c-2.418 0-4.375-1.957-4.375-4.375v-8.7461c0-2.418 1.957-4.375 4.375-4.375 2.418 0 4.375 1.957 4.375 4.375v8.7461c-0.003907 2.4219-1.9609 4.375-4.375 4.375z"/>
  <path d="m196.9 481.04c-2.418 0-4.375-1.957-4.375-4.375v-8.7461c0-2.418 1.957-4.375 4.375-4.375 2.418 0 4.375 1.957 4.375 4.375v8.7461c0 2.4219-1.9531 4.375-4.375 4.375z"/>
  <path d="m179.41 481.04c-2.418 0-4.375-1.957-4.375-4.375v-8.7461c0-2.418 1.957-4.375 4.375-4.375s4.375 1.957 4.375 4.375v8.7461c-0.003906 2.4219-1.957 4.375-4.375 4.375z"/>
  <path d="m161.91 481.04c-2.418 0-4.375-1.957-4.375-4.375v-8.7461c0-2.418 1.957-4.375 4.375-4.375 2.418 0 4.375 1.957 4.375 4.375v8.7461c0 2.4219-1.957 4.375-4.375 4.375z"/>
  <path d="m144.41 481.04c-2.418 0-4.375-1.957-4.375-4.375v-8.7461c0-2.418 1.957-4.375 4.375-4.375 2.418 0 4.375 1.957 4.375 4.375v8.7461c0 2.4219-1.957 4.375-4.375 4.375z"/>
  <path d="m126.92 481.04c-2.418 0-4.375-1.957-4.375-4.375v-8.7461c0-2.418 1.957-4.375 4.375-4.375s4.375 1.957 4.375 4.375v8.7461c0 2.4219-1.957 4.375-4.375 4.375z"/>
  <path d="m109.42 481.04c-2.418 0-4.375-1.957-4.375-4.375v-8.7461c0-2.418 1.957-4.375 4.375-4.375s4.375 1.957 4.375 4.375v8.7461c0 2.4219-1.957 4.375-4.375 4.375z"/>
  <path d="m91.926 481.04c-2.418 0-4.375-1.957-4.375-4.375v-8.7461c0-2.418 1.957-4.375 4.375-4.375s4.375 1.957 4.375 4.375v8.7461c0 2.4219-1.957 4.375-4.375 4.375z"/>
  <path d="m74.434 481.04c-2.418 0-4.375-1.957-4.375-4.375v-8.7461c0-2.418 1.957-4.375 4.375-4.375 2.418 0 4.375 1.957 4.375 4.375v8.7461c-0.003906 2.4219-1.9609 4.375-4.375 4.375z"/>
  <path d="m310.62 358.57c-2.418 0-4.375-1.957-4.375-4.375v-17.496c0-2.418 1.957-4.375 4.375-4.375 2.418 0 4.375 1.957 4.375 4.375v17.496c0 2.4219-1.957 4.375-4.375 4.375z"/>
  <path d="m328.12 376.06c-3.5273 0-6.9805-0.58984-10.258-1.7656-2.2773-0.8125-3.4648-3.3164-2.6484-5.5859 0.80859-2.2734 3.3047-3.4766 5.5859-2.6484 2.3359 0.83594 4.8008 1.2539 7.3203 1.2539 12.059 0 21.871-9.8164 21.871-21.871 0-12.055-9.8125-21.867-21.871-21.867-2.4883 0-4.9453 0.41797-7.2969 1.2461-2.2656 0.79688-4.7734-0.39453-5.5781-2.6719-0.80469-2.2734 0.39844-4.7734 2.6758-5.5781 3.2852-1.1523 6.7188-1.7422 10.199-1.7422 16.883 0 30.617 13.738 30.617 30.617 0 16.875-13.734 30.613-30.617 30.613z"/>
  <path d="m389.36 358.57c-1.2812 0-2.5547-0.5625-3.418-1.6406l-34.996-43.738c-1.5078-1.8906-1.1992-4.6367 0.68359-6.1523 1.8906-1.5117 4.6367-1.1875 6.1523 0.68359l34.996 43.738c1.5039 1.8867 1.1953 4.6367-0.68359 6.1484-0.8125 0.64453-1.7773 0.96094-2.7344 0.96094z"/>
  <path d="m389.36 411.6c-2.418 0-4.375-1.957-4.375-4.3711v-53.035c0-2.418 1.957-4.375 4.375-4.375s4.3711 1.957 4.3711 4.375v53.035c0.003907 2.4141-1.9531 4.3711-4.3711 4.3711z"/>
  <path d="m363.11 393.83c-2.418 0-4.3789-1.957-4.3789-4.375v-26.516c0-2.418 1.9609-4.375 4.3789-4.375s4.375 1.957 4.375 4.375v26.516c0 2.418-1.957 4.375-4.375 4.375z"/>
  <path d="m354.36 314.83c-2.418 0-4.375-1.957-4.375-4.375v-43.738c0-2.418 1.957-4.375 4.375-4.375s4.375 1.957 4.375 4.375v43.738c0 2.418-1.957 4.375-4.375 4.375z"/>
  <path d="m538.07 428.55h-17.496c-2.418 0-4.3711-1.957-4.3711-4.3711 0-2.418 1.957-4.375 4.3711-4.375h17.496c2.418 0 4.375 1.957 4.375 4.375s-1.9531 4.3711-4.375 4.3711z"/>
  <path d="m144.41 367.32c-2.418 0-4.375-1.957-4.375-4.375v-69.98c0-2.418 1.957-4.375 4.375-4.375 2.418 0 4.375 1.957 4.375 4.375v69.98c0 2.418-1.957 4.375-4.375 4.375z"/>
  <path d="m214.4 437.3c-41 0-74.355-33.359-74.355-74.355 0-2.418 1.957-4.375 4.375-4.375s4.375 1.957 4.375 4.375c0 36.18 29.43 65.609 65.609 65.609 2.418 0 4.375 1.957 4.375 4.375-0.007813 2.4141-1.9648 4.3711-4.3789 4.3711z"/>
  <path d="m214.4 419.8c-31.352 0-56.859-25.508-56.859-56.859 0-2.418 1.957-4.375 4.375-4.375 2.418 0 4.375 1.957 4.375 4.375 0 26.527 21.582 48.113 48.113 48.113 2.418 0 4.375 1.957 4.375 4.375-0.007813 2.4141-1.9648 4.3711-4.3789 4.3711z"/>
  <path d="m354.36 271.09c-2.418 0-4.375-1.957-4.375-4.375 0-7.2344-5.8867-13.121-13.121-13.121-2.418 0-4.375-1.957-4.375-4.375s1.957-4.375 4.375-4.375c12.059 0 21.871 9.8125 21.871 21.871 0 2.418-1.957 4.375-4.375 4.375z"/>
  <path d="m249.39 271.09c-1.1172 0-2.2383-0.42578-3.0938-1.2812-1.707-1.707-1.707-4.4766 0-6.1836l17.496-17.496c1.707-1.707 4.4766-1.707 6.1836 0 1.707 1.707 1.707 4.4766 0 6.1836l-17.496 17.496c-0.85156 0.85547-1.9688 1.2812-3.0898 1.2812z"/>
  <path d="m275.63 271.09c-1.1172 0-2.2383-0.42578-3.0938-1.2812-1.707-1.707-1.707-4.4766 0-6.1836l17.496-17.496c1.707-1.707 4.4766-1.707 6.1836 0 1.707 1.707 1.707 4.4766 0 6.1836l-17.496 17.496c-0.84766 0.85547-1.9688 1.2812-3.0898 1.2812z"/>
  <path d="m301.88 271.09c-1.1172 0-2.2383-0.42578-3.0938-1.2812-1.707-1.707-1.707-4.4766 0-6.1836l17.496-17.496c1.707-1.707 4.4766-1.707 6.1836 0 1.707 1.707 1.707 4.4766 0 6.1836l-17.496 17.496c-0.85156 0.85547-1.9727 1.2812-3.0898 1.2812z"/>
  <path d="m551.19 376.06c-2.418 0-4.375-1.957-4.375-4.375s1.957-4.375 4.375-4.375c9.6445 0 17.496-7.8516 17.496-17.496 0-9.6445-7.8516-17.496-17.496-17.496-2.418 0-4.375-1.957-4.375-4.375 0-2.418 1.957-4.3711 4.375-4.3711 14.469 0 26.242 11.77 26.242 26.242s-11.77 26.246-26.242 26.246z"/>
  <path d="m551.19 332.32h-91.852c-2.418 0-4.375-1.957-4.375-4.375s1.957-4.3711 4.375-4.3711h91.852c2.418 0 4.3711 1.957 4.3711 4.3711 0 2.418-1.9531 4.375-4.3711 4.375z"/>
  <path d="m551.19 376.06h-48.113c-2.418 0-4.375-1.957-4.375-4.375s1.957-4.375 4.375-4.375h48.113c2.418 0 4.3711 1.957 4.3711 4.375s-1.9531 4.375-4.3711 4.375z"/>
  <path d="m494.33 358.57c-2.418 0-4.375-1.957-4.375-4.375v-8.7461c0-2.418 1.957-4.375 4.375-4.375s4.375 1.957 4.375 4.375v8.7461c-0.003906 2.4219-1.9609 4.375-4.375 4.375z"/>
  <path d="m520.57 358.57c-2.418 0-4.3711-1.957-4.3711-4.375v-8.7461c0-2.418 1.957-4.375 4.3711-4.375 2.418 0 4.375 1.957 4.375 4.375v8.7461c0 2.4219-1.957 4.375-4.375 4.375z"/>
  <path d="m546.82 358.57c-2.418 0-4.3711-1.957-4.3711-4.375v-8.7461c0-2.418 1.957-4.375 4.3711-4.375 2.418 0 4.375 1.957 4.375 4.375v8.7461c0 2.4219-1.957 4.375-4.375 4.375z"/>
  <path d="m538.07 323.58c-2.418 0-4.3711-1.957-4.3711-4.375v-8.7461c0-2.418 1.957-4.3711 4.3711-4.3711 2.418 0 4.375 1.957 4.375 4.3711v8.7461c0 2.418-1.9531 4.375-4.375 4.375z"/>
  <path d="m538.07 314.83h-96.227c-2.418 0-4.375-1.957-4.375-4.375s1.957-4.3711 4.375-4.3711h96.227c2.418 0 4.375 1.957 4.375 4.3711 0 2.418-1.9531 4.375-4.375 4.375z"/>
  <path d="m520.57 402.3c-2.418 0-4.3711-1.957-4.3711-4.375v-17.223c0-2.418 1.957-4.375 4.3711-4.375 2.418 0 4.375 1.957 4.375 4.375v17.223c0 2.4219-1.957 4.375-4.375 4.375z"/>
  <path d="m328.12 358.57h-61.234c-1.8438 0-3.6992-0.42578-5.5117-1.2734-0.28906-0.13672-1.0938-0.64844-1.3438-0.83594-1.1367-0.71875-2.0781-1.5039-2.8672-2.375-0.32812-0.28906-0.68359-0.63281-0.87891-0.90625l-183.73-253.71c-4.2461-5.8555-2.9336-14.078 2.9219-18.324 5.6602-4.1016 14.223-2.7227 18.32 2.918l179.79 248.27h54.531c7.2344 0 13.121 5.8867 13.121 13.121 0.003906 7.2344-5.8789 13.121-13.117 13.121zm-65.074-10.961c0.18359 0.15234 0.35938 0.31641 0.46875 0.44531 0.35156 0.41797 0.67969 0.68359 1.1641 0.99219 0.089844 0.050781 0.66016 0.46094 0.73828 0.52734 0.30469 0.10156 0.89844 0.25 1.4648 0.25h61.234c2.4141 0 4.375-1.957 4.375-4.375 0-2.418-1.9609-4.375-4.375-4.375h-56.766c-1.4023 0-2.7227-0.67187-3.5391-1.8008l-181.09-250.08c-1.375-1.9023-4.207-2.3594-6.1094-0.97266-1.9531 1.4141-2.3906 4.1562-0.97266 6.1094z"/>
  <path d="m144.42 297.33c-1.6055 0-3.1484-0.87891-3.918-2.418-1.082-2.1602-0.20703-4.7852 1.957-5.8672l35.352-17.676c2.1523-1.0703 4.7852-0.20703 5.8672 1.957s0.20703 4.7891-1.957 5.8672l-35.352 17.676c-0.625 0.31641-1.293 0.46094-1.9492 0.46094z"/>
  <path d="m415.6 472.29c-2.418 0-4.375-1.957-4.375-4.375v-4.375c0-2.418 1.957-4.375 4.375-4.375 2.418 0 4.3711 1.957 4.3711 4.375v4.375c0 2.418-1.9531 4.375-4.3711 4.375z"/>
  <path d="m433.09 472.29c-2.418 0-4.375-1.957-4.375-4.375v-4.375c0-2.418 1.957-4.375 4.375-4.375s4.375 1.957 4.375 4.375v4.375c0 2.418-1.9531 4.375-4.375 4.375z"/>
  <path d="m450.59 472.29c-2.418 0-4.375-1.957-4.375-4.375v-4.375c0-2.418 1.957-4.375 4.375-4.375 2.418 0 4.375 1.957 4.375 4.375v4.375c0 2.418-1.957 4.375-4.375 4.375z"/>
  <path d="m468.09 472.29c-2.418 0-4.375-1.957-4.375-4.375v-4.375c0-2.418 1.957-4.375 4.375-4.375 2.418 0 4.375 1.957 4.375 4.375v4.375c0 2.418-1.957 4.375-4.375 4.375z"/>
  <path d="m485.58 472.29c-2.418 0-4.375-1.957-4.375-4.375v-4.375c0-2.418 1.957-4.375 4.375-4.375s4.375 1.957 4.375 4.375v4.375c0 2.418-1.957 4.375-4.375 4.375z"/>
  <path d="m503.08 472.29c-2.418 0-4.375-1.957-4.375-4.375v-4.375c0-2.418 1.957-4.375 4.375-4.375s4.375 1.957 4.375 4.375v4.375c0 2.418-1.957 4.375-4.375 4.375z"/>
  <path d="m520.57 472.29c-2.418 0-4.3711-1.957-4.3711-4.375v-4.375c0-2.418 1.957-4.375 4.3711-4.375 2.418 0 4.375 1.957 4.375 4.375v4.375c0 2.418-1.957 4.375-4.375 4.375z"/>
 </g>
</svg>
