<?xml version="1.0" encoding="UTF-8"?>
<svg width="700pt" height="700pt" version="1.1" viewBox="0 0 700 700" xmlns="http://www.w3.org/2000/svg" xmlns:xlink="http://www.w3.org/1999/xlink">
 <defs>
  <symbol id="w" overflow="visible">
   <path d="m0.03125 0h-0.015625-0.015625v-0.015625-0.015625h0.015625 0.015625-0.015625v0.015625 0.015625h0.015625v-0.015625z"/>
  </symbol>
  <symbol id="e" overflow="visible">
   <path d="m0.015625-0.015625v0.015625h-0.015625v-0.03125h0.015625v0.015625-0.015625z"/>
  </symbol>
  <symbol id="b" overflow="visible">
   <path d="m0.03125-0.015625h-0.015625v0.015625c0.0078125 0 0.015625-0.0039062 0.015625-0.015625v0.015625h-0.015625-0.015625v-0.015625l0.015625-0.015625v0.015625h0.015625z"/>
  </symbol>
  <symbol id="a" overflow="visible">
   <path d="m0.015625-0.015625v0.015625-0.015625zm0.015625 0v0.015625h-0.015625-0.015625v-0.015625h0.015625-0.015625v-0.015625h0.015625v0.015625h0.015625z"/>
  </symbol>
  <symbol id="d" overflow="visible">
   <path d="m0.015625-0.03125v0.015625 0.015625h-0.015625v-0.015625-0.015625z"/>
  </symbol>
  <symbol id="l" overflow="visible">
   <path d="m0.015625-0.015625v-0.015625h0.015625v0.03125h-0.015625-0.015625v-0.015625l0.015625-0.015625v0.015625zm0 0.015625v-0.015625 0.015625z"/>
  </symbol>
  <symbol id="k" overflow="visible">
   <path d="m0.015625 0v-0.015625 0.015625zm0-0.015625v-0.015625c0.0078125 0 0.015625 0.0078125 0.015625 0.015625v0.015625h-0.015625-0.015625v-0.03125h0.015625z"/>
  </symbol>
  <symbol id="j" overflow="visible">
   <path d="m0-0.03125h0.015625v0.015625-0.015625h0.015625l-0.015625 0.03125v0.015625h-0.015625v-0.015625h0.015625z"/>
  </symbol>
  <symbol id="i" overflow="visible">
   <path d="m0.015625-0.03125v0.015625 0.015625h0.015625v-0.015625c0-0.0078125-0.0078125-0.015625-0.015625-0.015625zm0 0h0.015625v0.015625 0.015625h-0.015625-0.015625v-0.015625-0.015625h0.015625z"/>
  </symbol>
  <symbol id="v" overflow="visible">
   <path d="m0-0.03125h0.015625v0.03125h-0.015625z"/>
  </symbol>
  <symbol id="f" overflow="visible">
   <path d="m0.03125-0.015625v0.015625h-0.015625v-0.015625 0.015625h-0.015625v-0.03125h0.015625v0.015625-0.015625c0.0078125 0 0.015625 0.0078125 0.015625 0.015625z"/>
  </symbol>
  <symbol id="h" overflow="visible">
   <path d="m0-0.03125h0.015625 0.015625v0.015625h-0.015625v0.015625h-0.015625zm0.015625 0v0.015625-0.015625z"/>
  </symbol>
  <symbol id="g" overflow="visible">
   <path d="m0.03125-0.03125v0.015625h-0.015625c0.0078125 0 0.015625 0.0078125 0.015625 0.015625h-0.015625-0.015625 0.015625v-0.015625h-0.015625l0.015625-0.015625h0.015625z"/>
  </symbol>
  <symbol id="c" overflow="visible">
   <path d="m0.015625-0.015625v0.015625-0.015625zm0-0.015625v0.015625h0.015625c0 0.011719-0.0078125 0.015625-0.015625 0.015625h-0.015625v-0.015625l0.015625-0.015625z"/>
  </symbol>
  <symbol id="u" overflow="visible">
   <path d="m0-0.03125h0.015625v0.015625-0.015625h0.015625l-0.015625 0.03125z"/>
  </symbol>
  <symbol id="t" overflow="visible">
   <path d="m0-0.03125h0.015625v0.015625-0.015625h0.015625l-0.015625 0.015625 0.015625 0.015625h-0.015625v-0.015625 0.015625h-0.015625z"/>
  </symbol>
  <symbol id="s" overflow="visible">
   <path d="m0.015625-0.03125v0.03125h-0.015625v-0.03125h0.015625z"/>
  </symbol>
  <symbol id="r" overflow="visible">
   <path d="m0.03125-0.015625v-0.015625c0.0078125 0 0.015625 0.0078125 0.015625 0.015625v0.015625h-0.015625v-0.015625 0.015625h-0.015625v-0.015625 0.015625h-0.015625v-0.03125h0.015625v0.015625-0.015625 0.015625h0.015625z"/>
  </symbol>
  <symbol id="q" overflow="visible">
   <path d="m0.03125-0.015625v0.015625h-0.015625v-0.015625 0.015625h-0.015625v-0.03125h0.015625v0.015625-0.015625c0.0078125 0 0.015625 0.0078125 0.015625 0.015625z"/>
  </symbol>
  <symbol id="p" overflow="visible">
   <path d="m0-0.03125h0.015625l0.015625 0.015625v-0.015625 0.03125l-0.015625-0.015625v0.015625h-0.015625z"/>
  </symbol>
  <symbol id="o" overflow="visible">
   <path d="m0-0.015625v-0.015625h0.015625v0.015625 0.015625-0.015625-0.015625h0.015625v0.03125h-0.015625-0.015625v-0.015625z"/>
  </symbol>
  <symbol id="n" overflow="visible">
   <path d="m0-0.03125h0.015625v0.03125h-0.015625v0.015625zm0 0h0.015625z"/>
  </symbol>
  <symbol id="m" overflow="visible">
   <path d="m0.03125-0.03125v0.015625h-0.015625v0.015625h0.015625-0.015625-0.015625v-0.015625l0.015625-0.015625h0.015625z"/>
  </symbol>
 </defs>
 <g>
  <path d="m336.77 438.34c4.9414 1.5977 9.6016 1.5625 13.789 0.26562 4.5625-1.4141 8.625-4.3398 11.93-8.3125 4.4141-5.3008 12.289-22.965 19.461-41.816 7.3594-19.355 13.863-39.738 15.031-49.168 0.30859-2.5078 0.50781-4.9844 0.52344-7.3555 0.015625-2.4141-0.13672-4.8242-0.51953-7.1953-0.85547-5.2891-2.5781-9.4609-4.9297-12.465-1.7188-2.1953-3.7852-3.7539-6.0898-4.6445-2.3086-0.89062-4.9141-1.1289-7.7031-0.67578-3.9219 0.63672-8.1953 2.6211-12.566 6.043-2.3633 1.8516-4.5898 4.0117-6.6758 6.3398-2.1406 2.3906-4.1172 4.9336-5.9297 7.4922-4.9883 7.043-15.25 29.934-23.062 51.617-6.0312 16.742-10.551 32.531-9.875 39.148 0.48438 4.7656 2.3047 9.2617 5.2539 12.938 2.8125 3.5039 6.6641 6.2578 11.367 7.7773zm212.26-132.48 5.6289 13.98 17.16 9.8789-17.16 9.8789-9.0859 22.562-9.0859-22.562-17.16-9.8789 17.16-9.8789 9.0859-22.562zm-0.80469 17.941-2.6523-6.5859-3.1328 7.7773-8.2148 4.7266 8.2148 4.7266 3.1328 7.7773 3.1328-7.7773 8.2148-4.7266-8.2148-4.7266zm22.781-84.859 6.9062 17.145 19.809 11.402-19.809 11.402-10.359 25.73-10.359-25.73-19.809-11.402 19.809-11.402 10.359-25.73 3.457 8.582zm0.47266 21.105-3.9258-9.7539-4.4062 10.941-10.863 6.2539 10.863 6.2539 4.4062 10.941 4.4062-10.941 10.863-6.2539-10.863-6.2539-0.48047-1.1914zm-101.32 126.61c-0.011719-1.2852 1.0234-2.332 2.3047-2.3438 1.2852-0.011718 2.332 1.0234 2.3438 2.3047 0.03125 3.8008-0.60547 8.0469-1.6289 12.352-1.2227 5.1602-3.0195 10.496-4.875 15.277-0.46484 1.1992-1.8086 1.793-3.0078 1.332-1.1992-0.46484-1.793-1.8086-1.332-3.0078 1.7695-4.5625 3.4883-9.6797 4.6758-14.676 0.95313-4.0117 1.5469-7.8906 1.5195-11.238zm-129.44-228.17 23.684 18.07c5.5-8.9062 9.2578-17.418 10.906-24.398 0.75-3.168 1.0703-5.9258 0.92969-8.125-0.070313-0.25391-0.11719-0.51562-0.13281-0.78906-0.070312-1.1758-0.78125-2.6055-1.9062-4.1289-2.8555-2.1445-8.7383-0.35938-15.953 4.2656-5.5195 3.5391-11.555 8.6992-17.523 15.105zm29.629 22.605 86.391 65.918c0.71875 0.54688 1.3164 1.1484 1.8086 1.7969 0.28516 0.066406 0.56641 0.16797 0.83984 0.30469l48.426 24.508c2.0234 1.0234 3.8359 2.2812 5.4219 3.7148 3.918 3.543 6.3672 8.1172 7.2344 12.992 0.86328 4.8516 0.15234 10.004-2.2422 14.73-0.99219 1.9609-2.2891 3.8594-3.8945 5.6328-1.1562 1.2812-2.3594 2.457-3.5898 3.5117-4.6484 3.9883-10.055 6.6641-15.535 7.3008-5.7344 0.66406-11.473-0.86719-16.465-5.3789-0.81641-0.73828-1.5898-1.5273-2.3125-2.3711l-35.191-41.023c-0.19531-0.22656-0.35547-0.46875-0.48438-0.72266-0.77734-0.29297-1.5312-0.71094-2.2578-1.2656l-86.547-66.035c-7.5742 7.8789-15.262 13.906-22.016 17.41-8.0469 4.1797-15.145 4.9219-19.934 1.3359l-0.078126-0.058593c-0.60156-0.46094-1.6328-1.2031-2.8164-2.0625-4.0195-2.9102-9.75-7.0547-13.418-11.062-58.977-25.016-125.71-103.13-150.98-132.71-5.2734-6.1719-8.6758-10.156-9.4453-10.742-5.4023-4.125-7.2656-11.504-5.9102-20.105 1.2383-7.8359 5.1797-16.848 11.531-25.176 6.3594-8.3359 14.004-14.516 21.223-17.773 7.9375-3.582 15.555-3.7344 20.965 0.39453 0.75391 0.57422 5.4961 2.7578 12.836 6.1367 35.188 16.195 127.94 58.887 167.03 109.78 4.1641 1.5078 9.3906 4.8086 13.66 8.6367 1.7539 1.5703 3.375 3.2617 4.7461 4.9922 2.0664 1.8242 3.3672 4.3672 3.9531 7.4688 0.125 0.55078 0.20703 1.0938 0.23828 1.6289l0.003906 0.046874c0.32812 3.207-0.011719 6.9219-0.97266 10.996-1.8633 7.8789-6.0781 17.406-12.223 27.242zm81.871 71.84-116.43-88.84c-1.2852 1.543-2.5547 3.1367-3.8125 4.7812-1.8477 2.4219-3.5781 4.8477-5.1914 7.2617l116.24 88.688c0.96484 0.73438 2.793-0.09375 4.5938-1.5391 0.94531-0.76172 1.8398-1.6875 2.625-2.707 0.78516-1.0195 1.4375-2.0977 1.8984-3.1562 0.83594-1.9297 1.0742-3.7344 0.082032-4.4922zm7.6641 4.7773c-0.23047 0.88672-0.53906 1.7734-0.92188 2.6562-0.71875 1.6602-1.6953 3.2852-2.832 4.7617-1.1367 1.4766-2.4492 2.8359-3.8516 3.9609-0.88672 0.71484-1.8125 1.3398-2.7578 1.8555l32.57 37.969c0.55859 0.64844 1.1055 1.2148 1.6406 1.6992 3.2305 2.9219 6.9336 3.9141 10.629 3.4844 3.9531-0.45703 7.9766-2.4961 11.539-5.5508 1.0391-0.89062 2.0156-1.8438 2.918-2.8398 1.1289-1.2461 2.043-2.5938 2.7578-4 1.6406-3.2461 2.1289-6.7734 1.5391-10.094-0.58594-3.293-2.2344-6.3789-4.8711-8.7656-1.0781-0.97656-2.3438-1.8477-3.7891-2.5781l-44.574-22.559zm-113.88-57.539-23.195-17.699c-3.8633 6.5781-6.7383 12.891-8.4805 18.469-2.5664 8.2031-2.7266 14.367 0.12109 16.539 2.2578 1.7227 6.6055 0.86328 12.078-1.9766 5.9062-3.0664 12.688-8.3633 19.48-15.328zm-40.969 10.352c0.089844-3.5195 0.83203-7.5039 2.1758-11.801 3.1641-10.125 9.6953-22.383 18.844-34.367 9.1445-11.984 19.238-21.516 28.168-27.242 4.2773-2.7422 8.375-4.6406 12.102-5.5703-3.0117-2.2461-6.0742-3.9766-8.3359-4.6289-0.16406-0.03125-0.32422-0.074219-0.48047-0.125-0.19141-0.042969-0.37891-0.082031-0.55859-0.10547-4.0547-0.58984-10.234 2.0977-17.289 7.2461-7.4062 5.4023-15.5 13.43-23 23.262-7.0703 9.2695-12.461 18.637-15.785 26.879-3.2344 8.0156-4.4844 14.754-3.3633 18.98 0.089844 0.33984 0.30078 0.73047 0.61328 1.1641 0.39453 0.31641 0.71484 0.70312 0.94922 1.1367 1.4219 1.5273 3.6289 3.3672 5.9648 5.1758zm-15.348-10.27c-0.10938-5.2656 1.3789-11.797 4.2656-18.957 3.5664-8.8438 9.2969-18.824 16.777-28.629 7.918-10.379 16.562-18.922 24.547-24.75 5.6602-4.1289 11.098-6.9297 15.863-8.1172-40-47.332-126.76-87.27-160.35-102.73-7.7891-3.5859-12.82-5.8984-14.238-6.9805-3.0508-2.3281-7.9414-1.9727-13.383 0.48047-6.1602 2.7812-12.77 8.1641-18.363 15.496-5.6016 7.3398-9.0508 15.133-10.102 21.793-0.92969 5.8984 0.023438 10.715 3.0781 13.047 1.3867 1.0586 4.9922 5.2773 10.582 11.82 23.961 28.047 85.68 100.29 141.32 127.53zm-73.957 189.02c0.054688-0.007813 0.10938-0.015625 0.16016-0.019532 4.4414-7.3633 8.3633-13.195 10.98-16.164 2.2891-2.5938 4.7305-5.125 7.2812-7.4297 2.6289-2.3711 5.4219-4.5469 8.3672-6.3828 5.8047-3.6172 11.484-5.5 16.695-5.7773 4.1484-0.22266 7.9922 0.57031 11.375 2.3125 3.3906 1.7461 6.2695 4.418 8.4727 7.9531 2.6602 4.2695 4.3242 9.8086 4.6797 16.473 0.15234 2.8281 0.03125 5.6484-0.28516 8.4219-0.3125 2.75-0.82031 5.4648-1.4375 8.1133-1.1602 4.9531-3.9961 12.551-7.75 21.281 1.1406 2.2461 2.1211 4.5234 2.9102 6.9609 13.418-31.992 25.086-57.492 30.883-64.453 5.5547-6.6719 10.41-11.156 15.129-14.316 4.8398-3.2422 9.4648-5.0703 14.488-6.3945 0.054687-0.015625 0.11328-0.027344 0.16797-0.039063 3.6289-7.8008 6.9023-14.012 9.1875-17.238 1.9883-2.8047 4.1406-5.582 6.4531-8.1641 2.3672-2.6445 4.9141-5.1094 7.6406-7.2461 5.3867-4.2188 10.832-6.6953 15.977-7.5312 4.0977-0.66406 8.0039-0.28516 11.551 1.082 3.5547 1.3711 6.6992 3.7227 9.2695 7.0078 3.1055 3.9648 5.3516 9.293 6.418 15.875 0.44922 2.7656 0.62891 5.5781 0.60937 8.3906-0.019531 2.8555-0.22656 5.6016-0.55078 8.2305-0.625 5.0469-2.6328 12.898-5.4336 21.988 2.4805 3.8125 4.4609 7.8125 5.8438 12.742 1.5312 5.4609 2.3125 12.02 2.2031 20.707-0.035156 2.8047-1.1016 7.9414-3.0039 14.934 1.7773-1.5391 3.5078-2.8594 5.2227-4.0078 4.8398-3.2422 9.4648-5.0703 14.488-6.3945 0.054687-0.015625 0.11328-0.027344 0.16797-0.039062 3.6289-7.8008 6.9023-14.012 9.1875-17.238 1.9883-2.8047 4.1406-5.582 6.4531-8.1641 2.3672-2.6445 4.9141-5.1094 7.6406-7.2461 5.3867-4.2188 10.832-6.6953 15.977-7.5312 4.0977-0.66406 8.0039-0.28516 11.551 1.082 3.5547 1.3711 6.6992 3.7227 9.2695 7.0078 3.1055 3.9648 5.3477 9.293 6.418 15.875 0.44922 2.7656 0.625 5.5781 0.60938 8.3906-0.019531 2.8555-0.22656 5.6016-0.55078 8.2305-0.625 5.0469-2.6328 12.898-5.4336 21.988 2.4805 3.8125 4.4609 7.8125 5.8438 12.742 1.5312 5.4609 2.3125 12.02 2.2031 20.707-0.085937 6.8125-3.6484 21.051-9.1289 39.105-5.4219 17.863-12.699 39.492-20.312 61.32-0.67578 1.9414-2.7969 2.9648-4.7383 2.2891-1.9414-0.67578-2.9648-2.7969-2.2891-4.7383 7.6172-21.844 14.875-43.402 20.223-61.027 5.293-17.434 8.7305-30.984 8.8086-37.031 0.097657-7.8984-0.58594-13.789-1.9414-18.609-0.50781-1.8047-1.1133-3.4688-1.8086-5.0352-2.1055 6.2539-4.4531 12.797-6.8906 19.211-7.3984 19.457-15.734 37.934-20.715 43.914-4.2148 5.0625-9.4766 8.8203-15.461 10.676-5.5977 1.7344-11.77 1.7969-18.25-0.29687-6.1602-1.9922-11.203-5.6016-14.895-10.199-3.8516-4.7969-6.2266-10.664-6.8594-16.875-0.79688-7.8047 3.9297-24.754 10.285-42.387 3.2969-9.1523 7.0508-18.555 10.695-26.973-2.1484 0.89062-4.2578 2-6.3984 3.4336-4.1523 2.7812-8.4961 6.8125-13.555 12.887-0.125 0.14844-0.25391 0.28516-0.39453 0.40625-2.5586 8.1367-5.668 17.496-9.1992 27.762-9.8281 28.57-23.141 64.898-36.668 101.16-0.71875 1.9258-2.8594 2.9062-4.7852 2.1875-1.9258-0.71875-2.9062-2.8594-2.1875-4.7852 13.332-35.727 26.551-71.82 36.582-100.98 9.8203-28.547 16.336-49.688 16.414-55.832 0.097657-7.8984-0.58594-13.789-1.9414-18.609-0.50781-1.8047-1.1133-3.4688-1.8086-5.0352-2.1055 6.2539-4.4531 12.797-6.8906 19.211-7.3984 19.457-15.734 37.934-20.715 43.914-4.2148 5.0625-9.4766 8.8203-15.457 10.676-5.5977 1.7344-11.77 1.7969-18.25-0.29688-6.1602-1.9922-11.203-5.6016-14.895-10.199-3.8516-4.7969-6.2266-10.664-6.8594-16.875-0.79688-7.8047 3.9297-24.754 10.285-42.387 3.2969-9.1523 7.0508-18.555 10.695-26.973-2.1484 0.89062-4.2578 2-6.3984 3.4336-4.1523 2.7812-8.4961 6.8125-13.555 12.887-5.9922 7.1953-19.688 38.102-35.051 75.371-15.469 37.527-32.555 81.395-45.25 114.21-0.74219 1.918-2.8945 2.8711-4.8125 2.1289-1.918-0.74219-2.8711-2.8945-2.1289-4.8125 12.707-32.852 29.809-76.762 45.309-114.36l0.082031-0.19531c-0.19531-3.6133-0.74219-6.7031-1.582-9.5273-0.074219-0.25-0.15234-0.5-0.23047-0.75-2.7578 5.9961-5.793 12.246-8.9023 18.363-9.4375 18.562-19.699 36.047-25.277 41.453-4.7344 4.5898-10.367 7.7656-16.512 8.9688-5.7461 1.1289-11.895 0.52734-18.129-2.2539-5.9102-2.6367-10.539-6.7656-13.715-11.727-3.3164-5.1758-5.0469-11.258-5.0156-17.492 0.042969-7.8867 6.5469-24.234 14.738-41.078 4.2539-8.7383 8.9844-17.68 13.508-25.66-2.2344 0.65625-4.4453 1.5312-6.7227 2.7227-4.4062 2.3125-9.1484 5.8555-14.84 11.367-6.4766 6.2734-19.695 28.988-34.641 56.746-15.102 28.055-31.836 61.07-45.258 87.68-0.92578 1.8359-3.1641 2.5742-5.0039 1.6484-1.8359-0.92578-2.5742-3.1641-1.6484-5.0039 13.469-26.703 30.254-59.82 45.348-87.855 15.254-28.332 28.902-51.672 36.012-58.555 6.2266-6.0273 11.539-9.9688 16.59-12.621 5.1719-2.7148 9.9609-4.0391 15.082-4.8164zm-11.406 97.844c4.7305 2.1094 9.3633 2.5703 13.668 1.7266 4.6914-0.92188 9.043-3.3945 12.75-6.9844 4.9648-4.8086 14.684-21.527 23.82-39.5 9.3906-18.465 18.031-38.043 20.199-47.281 0.55859-2.3906 1.0156-4.8281 1.293-7.2656 0.27734-2.418 0.38281-4.8281 0.25781-7.1953-0.28516-5.3438-1.5547-9.6758-3.5742-12.914-1.4766-2.3711-3.3633-4.1406-5.5547-5.2695-2.2031-1.1328-4.7617-1.6445-7.582-1.4922-3.9609 0.21094-8.4219 1.7305-13.137 4.668-2.5391 1.582-4.9883 3.4961-7.3164 5.5977-2.4023 2.168-4.6406 4.4844-6.6992 6.8164-5.6992 6.457-18.34 28.121-28.434 48.863-7.793 16.016-13.977 31.227-14.012 37.84-0.027344 4.7969 1.3047 9.4688 3.8477 13.438 2.4258 3.7891 5.9609 6.9414 10.477 8.9531zm218.49 11.559c4.9414 1.5977 9.6016 1.5625 13.789 0.26562 4.5625-1.4141 8.625-4.3398 11.93-8.3125 4.4141-5.3008 12.289-22.965 19.461-41.816 7.3594-19.355 13.863-39.738 15.027-49.168 0.30859-2.5078 0.50781-4.9844 0.52344-7.3555 0.015626-2.4141-0.13672-4.8242-0.51953-7.1953-0.85547-5.2891-2.5781-9.4609-4.9297-12.465-1.7188-2.1953-3.7852-3.7539-6.0898-4.6445-2.3086-0.89062-4.9141-1.1289-7.7031-0.67578-3.9219 0.63672-8.1953 2.6211-12.566 6.043-2.3633 1.8516-4.5898 4.0117-6.6758 6.3398-2.1406 2.3906-4.1172 4.9336-5.9297 7.4922-4.9883 7.043-15.25 29.934-23.062 51.617-6.0312 16.742-10.551 32.531-9.875 39.148 0.48438 4.7656 2.3047 9.2617 5.2539 12.938 2.8125 3.5039 6.6602 6.2578 11.367 7.7773z"/>
 </g>
</svg>
